<?xml version="1.0" encoding="UTF-8"?>
<svg xmlns="http://www.w3.org/2000/svg" xmlns:xlink="http://www.w3.org/1999/xlink" width="150pt" height="150pt" viewBox="0 0 150 150" version="1.1">
<g id="surface1">
<path style=" stroke:none;fill-rule:nonzero;fill:rgb(0%,0%,0%);fill-opacity:1;" d="M 1.523438 59.90625 C 1.273438 61.128906 1.054688 62.359375 0.863281 63.601562 C 0.675781 64.84375 0.515625 66.09375 0.386719 67.355469 C 0.132812 69.878906 0 72.4375 0 75.027344 C 0 77.617188 0.132812 80.175781 0.386719 82.699219 C 0.515625 83.960938 0.675781 85.210938 0.863281 86.453125 C 1.054688 87.695312 1.273438 88.929688 1.523438 90.148438 C 1.773438 91.371094 2.054688 92.582031 2.363281 93.777344 C 2.980469 96.175781 3.710938 98.527344 4.554688 100.824219 C 4.972656 101.972656 5.421875 103.109375 5.898438 104.230469 C 6.371094 105.351562 6.871094 106.460938 7.398438 107.554688 C 7.660156 108.101562 7.933594 108.644531 8.207031 109.183594 C 8.761719 110.261719 9.339844 111.328125 9.941406 112.375 C 11.746094 115.515625 13.777344 118.515625 16.003906 121.351562 C 17.117188 122.765625 18.28125 124.144531 19.492188 125.476562 C 20.300781 126.363281 21.125 127.234375 21.976562 128.082031 C 22.824219 128.929688 23.695312 129.757812 24.582031 130.566406 C 28.578125 134.199219 32.96875 137.40625 37.683594 140.117188 C 38.730469 140.71875 39.792969 141.296875 40.871094 141.847656 C 43.027344 142.953125 45.246094 143.957031 47.519531 144.851562 C 48.652344 145.300781 49.804688 145.722656 50.964844 146.117188 C 58.519531 148.671875 66.613281 150.058594 75.027344 150.058594 C 80.765625 150.058594 86.355469 149.410156 91.722656 148.191406 C 94.230469 147.621094 96.6875 146.929688 99.09375 146.117188 C 100.253906 145.722656 101.402344 145.300781 102.539062 144.855469 C 104.8125 143.960938 107.027344 142.957031 109.1875 141.851562 C 110.265625 141.296875 111.328125 140.71875 112.375 140.117188 C 117.089844 137.40625 121.480469 134.199219 125.476562 130.566406 C 126.367188 129.757812 127.234375 128.929688 128.082031 128.082031 C 128.929688 127.234375 129.757812 126.363281 130.566406 125.476562 C 131.777344 124.144531 132.941406 122.769531 134.054688 121.351562 C 135.816406 119.109375 137.449219 116.761719 138.953125 114.324219 C 139.347656 113.679688 139.738281 113.03125 140.117188 112.375 C 140.71875 111.328125 141.296875 110.265625 141.851562 109.183594 C 142.125 108.644531 142.394531 108.101562 142.660156 107.554688 C 143.1875 106.464844 143.6875 105.355469 144.160156 104.234375 C 144.636719 103.109375 145.085938 101.976562 145.503906 100.824219 C 146.347656 98.527344 147.078125 96.175781 147.695312 93.78125 C 148.003906 92.582031 148.285156 91.371094 148.535156 90.148438 C 148.785156 88.929688 149.003906 87.695312 149.195312 86.453125 C 149.382812 85.214844 149.542969 83.960938 149.671875 82.699219 C 149.925781 80.179688 150.058594 77.617188 150.058594 75.027344 C 150.058594 72.4375 149.925781 69.878906 149.671875 67.355469 C 149.542969 66.097656 149.382812 64.84375 149.195312 63.601562 C 149.003906 62.359375 148.785156 61.128906 148.535156 59.90625 C 148.285156 58.6875 148.003906 57.476562 147.695312 56.277344 C 147.078125 53.882812 146.347656 51.53125 145.503906 49.230469 C 145.296875 48.65625 145.078125 48.085938 144.855469 47.515625 C 144.183594 45.8125 143.449219 44.140625 142.660156 42.5 C 142.394531 41.953125 142.125 41.410156 141.847656 40.871094 C 141.296875 39.792969 140.71875 38.730469 140.117188 37.683594 C 138.308594 34.539062 136.28125 31.542969 134.054688 28.707031 C 132.941406 27.289062 131.777344 25.914062 130.566406 24.582031 C 129.757812 23.691406 128.929688 22.824219 128.082031 21.976562 C 127.234375 21.125 126.363281 20.296875 125.476562 19.492188 C 123.753906 17.925781 121.960938 16.445312 120.101562 15.042969 C 117.636719 13.191406 115.058594 11.484375 112.375 9.941406 C 111.328125 9.339844 110.265625 8.761719 109.1875 8.207031 C 108.695312 7.957031 108.199219 7.710938 107.703125 7.472656 C 107.109375 7.183594 106.507812 6.902344 105.90625 6.628906 C 105.652344 6.515625 105.398438 6.40625 105.144531 6.292969 C 104.28125 5.917969 103.417969 5.550781 102.539062 5.203125 C 102.527344 5.199219 102.515625 5.195312 102.503906 5.191406 C 101.566406 4.824219 100.621094 4.476562 99.667969 4.144531 C 99.476562 4.078125 99.285156 4.007812 99.09375 3.941406 C 96.871094 3.191406 94.601562 2.542969 92.292969 2 C 91.570312 1.828125 90.84375 1.667969 90.117188 1.519531 C 89.589844 1.410156 89.0625 1.3125 88.53125 1.214844 C 84.585938 0.496094 80.53125 0.0898438 76.398438 0.015625 C 75.941406 0.0078125 75.484375 0 75.027344 0 C 74.25 0 73.476562 0.015625 72.703125 0.0390625 C 65.121094 0.269531 57.820312 1.621094 50.964844 3.941406 C 49.800781 4.335938 48.652344 4.757812 47.515625 5.203125 C 47.164062 5.34375 46.816406 5.488281 46.46875 5.632812 C 45.691406 5.953125 44.914062 6.28125 44.148438 6.628906 C 43.042969 7.128906 41.949219 7.65625 40.871094 8.207031 C 39.792969 8.761719 38.730469 9.339844 37.679688 9.941406 C 33.46875 12.363281 29.511719 15.183594 25.863281 18.351562 C 25.433594 18.726562 25.003906 19.105469 24.578125 19.492188 C 23.691406 20.296875 22.820312 21.128906 21.972656 21.976562 C 21.125 22.824219 20.296875 23.691406 19.488281 24.582031 C 18.277344 25.914062 17.113281 27.289062 16 28.707031 C 13.773438 31.542969 11.746094 34.542969 9.9375 37.683594 C 9.335938 38.730469 8.757812 39.792969 8.207031 40.871094 C 7.929688 41.410156 7.660156 41.953125 7.398438 42.5 C 6.605469 44.140625 5.875 45.816406 5.203125 47.519531 C 4.976562 48.085938 4.761719 48.65625 4.550781 49.230469 C 3.707031 51.53125 2.976562 53.882812 2.359375 56.277344 C 2.054688 57.476562 1.773438 58.6875 1.523438 59.90625 Z M 62.316406 5.152344 C 62.460938 5.402344 62.585938 5.6875 62.941406 5.796875 C 63.644531 5.433594 64.347656 5.824219 65.121094 5.796875 C 65.875 5.773438 66.546875 5.425781 67.378906 5.558594 C 68.84375 5.785156 70.894531 7.222656 72.050781 6.441406 C 72.34375 6.246094 72.273438 5.90625 72.535156 5.394531 C 72.746094 4.988281 73.070312 4.535156 73.273438 4.035156 C 73.855469 4.019531 74.441406 4.011719 75.027344 4.011719 C 79.882812 4.011719 84.621094 4.503906 89.203125 5.433594 C 89.011719 5.9375 88.382812 5.714844 87.851562 5.957031 C 87.355469 6.1875 87.171875 6.664062 86.644531 6.761719 C 85.175781 7.039062 83.960938 6.394531 82.691406 6.441406 C 82.632812 6.992188 83.320312 7.3125 83.660156 7.488281 C 84.808594 8.089844 85.746094 8.007812 87.367188 7.972656 C 88.199219 7.953125 89.152344 8.21875 89.867188 7.730469 C 90.320312 7.417969 90.296875 6.738281 90.671875 6.363281 C 90.835938 6.203125 91.070312 6.042969 91.339844 5.90625 C 92.136719 6.09375 92.925781 6.296875 93.710938 6.511719 C 93.578125 7.054688 92.699219 6.921875 92.691406 7.648438 C 93.25 7.984375 94.554688 7.464844 95.058594 6.890625 C 95.253906 6.949219 95.449219 7.007812 95.644531 7.066406 C 96.785156 7.414062 97.910156 7.785156 99.027344 8.1875 C 100.617188 8.761719 102.179688 9.390625 103.714844 10.070312 C 103.421875 10.242188 103.105469 10.464844 102.847656 10.464844 C 102.179688 10.460938 101.898438 9.570312 101.152344 9.898438 C 101.089844 10.761719 102.066406 11.109375 102.683594 11.507812 C 103.355469 11.941406 104.058594 12.371094 104.296875 13.117188 C 103.640625 14.507812 102.59375 13.046875 101.554688 13.039062 C 100.414062 13.03125 98.742188 15.214844 97.769531 13.441406 C 98.011719 12.503906 99.046875 12.355469 99.300781 11.429688 C 99.078125 11.46875 98.863281 11.539062 98.648438 11.625 C 98.265625 11.777344 97.886719 11.980469 97.496094 12.191406 C 96.984375 12.46875 96.445312 12.742188 95.832031 12.878906 C 95.269531 13.003906 94.722656 12.972656 94.222656 13.117188 C 93.257812 13.402344 92.582031 14.113281 91.5625 14.488281 C 91.164062 14.632812 90.6875 14.589844 90.273438 14.726562 C 89.296875 15.054688 88.132812 15.632812 87.128906 16.175781 C 86.101562 16.730469 84.945312 17.316406 84.308594 17.867188 C 83.964844 18.164062 83.066406 19.21875 83.097656 19.554688 C 83.140625 20.035156 84.042969 20.195312 84.066406 20.683594 C 84.042969 20.980469 83.542969 21.621094 83.90625 22.050781 C 84.234375 22.445312 84.894531 22.125 85.597656 22.210938 C 86.828125 22.363281 87.632812 23.378906 88.578125 23.902344 C 89.292969 24.296875 90.355469 24.765625 91.160156 24.867188 C 92.269531 25.003906 93.507812 24.542969 93.660156 25.429688 C 93.804688 26.28125 92.617188 26.585938 92.53125 27.121094 C 93.128906 27.90625 92.125 28.28125 92.128906 28.972656 C 92.128906 29.53125 92.816406 30.367188 93.417969 30.417969 C 94.230469 30.488281 95.417969 29.621094 95.753906 28.808594 C 96.15625 27.84375 95.988281 26.535156 96.722656 25.832031 C 100.480469 25.9375 103.65625 24.128906 103.414062 20.28125 C 103.390625 19.902344 103.175781 19.410156 103.253906 18.992188 C 103.371094 18.371094 104.441406 17.847656 104.300781 17.0625 C 104.707031 16.9375 104.949219 16.609375 105.15625 16.242188 C 105.464844 15.695312 105.703125 15.066406 106.277344 14.859375 C 106.320312 14.84375 106.351562 14.820312 106.398438 14.808594 C 106.726562 14.734375 107.070312 14.800781 107.429688 14.90625 C 108.074219 15.097656 108.773438 15.425781 109.539062 15.371094 C 109.929688 15.347656 110.4375 14.996094 110.832031 15.050781 C 111.617188 15.160156 112.09375 16.132812 112.683594 16.582031 C 113.207031 16.980469 113.761719 16.851562 113.894531 17.386719 C 113.738281 18.277344 113.117188 18.3125 113.167969 19.132812 C 113.167969 19.140625 113.167969 19.144531 113.167969 19.15625 C 113.226562 19.890625 113.992188 20.453125 114.375 20.523438 C 114.964844 20.632812 115.804688 20.320312 116.390625 20.039062 C 117.027344 19.742188 117.605469 19.09375 118.15625 18.644531 C 118.949219 19.25 119.726562 19.871094 120.488281 20.507812 C 120.574219 20.867188 120.636719 21.191406 120.664062 21.410156 C 120.777344 22.277344 120.546875 22.941406 120.585938 23.742188 C 120.6875 25.101562 122.402344 24.960938 123.246094 25.671875 C 123.5 25.890625 123.597656 26.441406 123.808594 26.71875 C 124.21875 27.265625 124.714844 27.265625 124.777344 27.84375 C 124.929688 29.234375 123.515625 29.351562 123.648438 30.902344 C 123.355469 31.503906 122.621094 31.46875 122.679688 32.269531 C 122.773438 33.542969 124.601562 32.566406 125.097656 33.558594 C 125.367188 34.089844 125.054688 34.488281 124.855469 35.246094 C 125.480469 35.992188 125.476562 37.175781 124.375 37.179688 C 123.703125 37.179688 123.519531 36.460938 122.839844 36.292969 C 122.464844 36.199219 121.953125 36.21875 121.472656 36.132812 C 121.0625 36.058594 120.570312 35.9375 120.183594 35.890625 C 119.1875 35.773438 118.109375 36.0625 117.523438 35.488281 C 118.480469 34.21875 119.753906 32.964844 120.988281 31.867188 C 121.355469 31.542969 122.144531 31.316406 121.957031 30.660156 C 121.269531 30.058594 120.425781 30.699219 119.78125 31.0625 C 119.101562 31.445312 118.289062 31.996094 117.523438 32.109375 C 116.1875 32.308594 114.421875 31.71875 113.332031 32.429688 C 113.179688 33.039062 114.570312 32.804688 114.378906 33.71875 C 113.84375 33.808594 113.339844 33.847656 112.929688 33.476562 C 112.554688 33.140625 112.769531 32.632812 112.527344 32.429688 C 112.113281 32.089844 110.558594 31.996094 109.863281 32.109375 C 109.019531 32.246094 108.269531 32.753906 108.171875 33.476562 C 109.1875 33.953125 110.867188 32.988281 111.234375 34.203125 C 110.675781 35.203125 109.363281 35.753906 109.539062 37.097656 C 109.609375 37.617188 110.226562 38.308594 110.671875 38.386719 C 111.117188 38.460938 111.367188 38.019531 111.796875 38.0625 C 112.253906 38.105469 112.152344 38.625 112.6875 38.546875 C 113.460938 38.214844 113.890625 37.128906 114.78125 37.179688 C 115.847656 38.472656 113.816406 39.101562 112.6875 39.511719 C 111.394531 39.980469 109.71875 40.226562 108.734375 40.640625 C 108.21875 40.855469 106.269531 42.738281 105.996094 41.28125 C 105.796875 40.234375 106.960938 40.535156 107.203125 39.671875 C 105.957031 39.429688 104.792969 40.210938 103.65625 40.640625 C 102.039062 41.253906 99.289062 41.640625 98.898438 43.457031 C 98.824219 43.820312 99.058594 44.5 98.820312 44.742188 C 98.625 44.9375 97.472656 44.972656 96.964844 45.144531 C 96.1875 45.410156 95.511719 45.980469 95.03125 46.109375 C 94.667969 46.210938 94.132812 46.183594 93.902344 46.273438 C 93.261719 46.519531 93.023438 47.386719 92.289062 47.960938 C 91.988281 48.195312 91.320312 48.367188 91.082031 48.605469 C 90.664062 49.019531 90.609375 50.058594 89.871094 50.214844 C 89.402344 50.253906 89.023438 49.863281 88.582031 50.132812 C 88.527344 51.160156 88.945312 52.554688 88.5 53.59375 C 87.546875 54.371094 86.5 54.917969 85.277344 55.605469 C 84.601562 55.984375 83.996094 56.082031 83.179688 56.492188 C 82.601562 56.777344 82.074219 57.464844 81.40625 57.859375 C 79.867188 58.761719 78.011719 59.832031 78.023438 62.125 C 78.023438 62.617188 78.28125 63.152344 78.34375 63.734375 C 78.382812 64.074219 78.300781 64.40625 78.34375 64.777344 C 78.4375 65.621094 79.050781 66.691406 78.34375 67.273438 C 77.257812 66.828125 75.878906 66.675781 75.121094 65.90625 C 74.910156 65.109375 75.539062 64.457031 75.441406 63.734375 C 75.367188 63.152344 74.546875 62.117188 74.070312 62.042969 C 73.582031 61.964844 73.128906 62.484375 72.621094 62.445312 C 72.019531 62.398438 71.460938 61.570312 70.683594 61.480469 C 69.550781 61.347656 68.71875 61.738281 67.460938 61.5625 C 66.246094 62.207031 65.890625 63.363281 64.398438 63.25 C 63.875 63.210938 63.394531 62.808594 62.789062 62.6875 C 62.128906 62.550781 61.132812 62.316406 60.449219 62.367188 C 59.078125 62.457031 58.082031 63.441406 56.902344 64.054688 C 55.863281 64.59375 54.390625 65.265625 54.082031 66.386719 C 53.910156 66.992188 54.054688 67.839844 53.839844 68.398438 C 53.695312 68.765625 53.386719 69.09375 53.195312 69.445312 C 52.289062 71.089844 51.539062 73.269531 52.226562 75.640625 C 52.328125 75.992188 53.226562 77.976562 53.597656 78.375 C 54.011719 78.820312 55.234375 79.488281 55.933594 79.503906 C 56.523438 79.515625 57.214844 79.203125 57.789062 79.101562 C 58.453125 78.984375 59.28125 78.972656 59.886719 78.777344 C 61.628906 78.222656 61.285156 75.871094 63.027344 75.078125 C 63.789062 74.734375 64.671875 74.664062 66.011719 74.59375 C 66.433594 74.953125 66.636719 75.578125 66.574219 76.121094 C 66.53125 76.535156 66.140625 76.90625 65.929688 77.492188 C 65.746094 78.003906 65.707031 78.605469 65.527344 79.019531 C 65.289062 79.5625 64.753906 79.960938 64.5625 80.46875 C 64.433594 80.800781 64.503906 81.214844 64.398438 81.515625 C 64.214844 82.042969 63.503906 82.417969 63.835938 82.960938 C 65.558594 83.648438 67.648438 82.769531 69.15625 83.042969 C 69.792969 83.160156 71.101562 83.917969 71.089844 84.894531 C 71.082031 85.628906 70.523438 86.105469 70.445312 86.90625 C 70.347656 87.914062 69.925781 89.148438 69.878906 89.964844 C 69.808594 91.300781 71.84375 93.601562 73.265625 93.585938 C 74.796875 93.566406 75.691406 92.0625 77.539062 92.863281 C 78.152344 93.125 78.796875 94.117188 79.476562 94.070312 C 80.03125 94.027344 80.875 93.054688 81.25 92.378906 C 81.703125 91.554688 81.734375 90.863281 82.539062 90.449219 C 83.402344 90 84.089844 90.214844 85.199219 89.804688 C 85.691406 89.621094 86.121094 89.304688 86.566406 89 C 86.957031 88.730469 87.371094 88.027344 87.859375 88.515625 C 88.503906 89.15625 87.070312 89.519531 87.617188 90.207031 C 88.734375 90.796875 89.304688 89.105469 90.117188 89.078125 C 90.375 89.070312 91.269531 89.582031 91.726562 89.882812 C 92.355469 90.296875 92.570312 90.875 93.257812 91.011719 C 93.699219 91.097656 94.410156 90.839844 95.03125 90.929688 C 95.855469 91.046875 96.34375 91.75 96.96875 91.734375 C 97.726562 91.714844 98.09375 90.886719 98.742188 90.765625 C 100.164062 90.507812 100.695312 90.925781 101.320312 91.8125 C 102.023438 91.933594 102.046875 91.003906 102.691406 91.332031 C 102.339844 92.035156 102.8125 92.355469 103.09375 92.941406 C 103.277344 93.316406 103.246094 93.582031 103.417969 93.746094 C 103.800781 94.113281 104.542969 94.113281 105.109375 94.46875 C 105.703125 94.84375 106.039062 95.539062 106.722656 96.320312 C 107.421875 97.121094 108.605469 97.949219 109.542969 98.007812 C 110.429688 98.066406 111.148438 97.757812 111.882812 97.847656 C 113.546875 98.054688 114.585938 98.882812 115.75 99.78125 C 116.402344 100.28125 116.992188 100.628906 117.199219 101.226562 C 117.347656 101.644531 117.277344 102.207031 117.441406 102.675781 C 117.800781 103.679688 119.261719 104.164062 118.734375 105.894531 C 118.976562 106.402344 119.519531 106.585938 120.101562 106.941406 C 120.570312 107.226562 120.96875 107.824219 121.472656 107.90625 C 121.800781 107.957031 122.15625 107.808594 122.441406 107.824219 C 123.355469 107.886719 123.984375 108.242188 124.777344 108.550781 C 125.273438 108.738281 125.902344 108.8125 126.230469 109.035156 C 126.640625 109.3125 126.691406 110.238281 127.199219 110.480469 C 127.527344 110.640625 128.261719 110.421875 128.808594 110.480469 C 129.675781 110.582031 130.847656 111.109375 131.632812 111.125 C 132.105469 111.136719 132.5 110.933594 132.921875 110.964844 C 133.898438 111.039062 134.667969 111.65625 135.425781 112.347656 C 125.714844 128.003906 110.09375 139.621094 91.699219 144.0625 C 91.628906 143.355469 91.433594 142.648438 91.402344 141.945312 C 91.339844 140.414062 91.574219 139.335938 91.324219 137.921875 C 91.136719 136.851562 90.90625 135.214844 90.519531 134.542969 C 90.085938 133.792969 88.390625 132.523438 87.535156 132.046875 C 86.972656 131.734375 86.296875 131.625 85.683594 131.324219 C 84.371094 130.679688 81.824219 129.320312 81.25 128.023438 C 81.082031 127.648438 81.105469 127.15625 80.925781 126.738281 C 80.574219 125.914062 79.835938 125.199219 79.3125 124.402344 C 78.316406 122.882812 77.511719 120.980469 76.492188 119.414062 C 75.976562 118.617188 75.527344 117.714844 74.960938 117.082031 C 74.628906 116.707031 73.566406 116.355469 73.429688 115.792969 C 73.25 115.050781 72.695312 114.027344 72.785156 113.457031 C 72.902344 112.691406 74.398438 112.066406 74.398438 111.367188 C 74.394531 110.773438 73.597656 110.425781 73.429688 109.917969 C 73.023438 108.6875 73.667969 107.964844 74.152344 106.941406 C 74.316406 106.605469 74.472656 106.0625 74.640625 105.816406 C 74.933594 105.375 75.535156 105.25 75.929688 104.769531 C 76.148438 104.5 76.285156 103.941406 76.574219 103.5625 C 77.1875 102.75 78.175781 102.445312 78.425781 101.710938 C 78.632812 101.113281 78.753906 98.125 78.507812 97.125 C 78.367188 96.546875 77.828125 96.066406 77.621094 95.515625 C 77.257812 94.546875 77.171875 93.484375 76.167969 93.503906 C 75.550781 93.519531 75.113281 94.199219 74.71875 94.628906 C 74.621094 95.203125 74.671875 95.824219 74.074219 96 C 73.15625 96.269531 72.804688 95.035156 71.734375 94.710938 C 71.308594 94.582031 70.632812 94.589844 70.367188 94.46875 C 69.585938 94.121094 69.335938 92.980469 68.511719 92.539062 C 67.824219 92.171875 67.234375 92.296875 66.816406 91.734375 C 66.644531 91.34375 66.78125 90.644531 66.738281 90.125 C 65.855469 89.609375 65.105469 87.683594 64.078125 87.230469 C 63.394531 86.925781 62.351562 86.953125 61.5 86.664062 C 61.097656 86.53125 60.789062 86.355469 60.367188 86.265625 C 59.851562 86.148438 59.320312 86.140625 58.917969 85.941406 C 57.324219 85.152344 56.460938 82.589844 54.484375 82.644531 C 53.644531 82.664062 52.832031 83.453125 52.066406 83.449219 C 51.308594 83.441406 50.035156 82.84375 49.082031 82.402344 C 48.09375 81.941406 46.996094 81.691406 46.183594 81.273438 C 45.523438 80.9375 45.0625 80.320312 44.488281 80.066406 C 44.046875 79.871094 43.402344 79.835938 43.039062 79.664062 C 42.523438 79.421875 41.984375 78.902344 41.34375 78.457031 C 40.738281 78.035156 40.078125 77.394531 40.054688 76.847656 C 40.027344 76.21875 40.636719 75.683594 40.699219 75.078125 C 40.90625 73.160156 39.492188 71.785156 38.601562 70.652344 C 37.945312 69.8125 37.167969 69.097656 36.507812 68.320312 C 36.546875 67.800781 36.546875 67.710938 36.507812 67.195312 C 36.007812 66.707031 35.585938 65.988281 35.058594 65.261719 C 34.578125 64.605469 33.644531 63.90625 33.527344 63.171875 C 33.378906 62.265625 33.871094 61.472656 33.527344 60.59375 C 32.953125 59.136719 30.925781 59.796875 31.1875 61.722656 C 31.261719 62.253906 32.007812 62.964844 32.234375 63.492188 C 32.46875 64.027344 32.421875 64.695312 32.636719 65.34375 C 32.847656 65.960938 33.472656 66.496094 33.6875 67.195312 C 34.027344 68.296875 34.019531 69.484375 34.332031 70.171875 C 34.609375 70.785156 35.628906 71.363281 35.058594 72.101562 C 34.292969 72.261719 34 71.5 33.527344 71.054688 C 33.261719 70.808594 32.300781 70.34375 32.15625 69.769531 C 32.035156 69.296875 32.457031 68.660156 32.316406 68.078125 C 32.039062 66.945312 29.742188 66.914062 29.734375 65.746094 C 29.730469 65.011719 30.695312 64.925781 30.703125 64.214844 C 30.710938 63.441406 29.644531 62.78125 29.414062 62.125 C 29.203125 61.519531 29.171875 60.558594 29.09375 59.710938 C 29.015625 58.914062 29.113281 57.992188 28.929688 57.375 C 28.765625 56.824219 27.933594 56.0625 27.398438 55.765625 C 26.691406 55.375 26.132812 55.539062 25.785156 54.964844 C 25.484375 54.460938 25.289062 53.414062 25.222656 52.871094 C 25.105469 51.902344 25.195312 50.847656 25.140625 49.8125 C 25.089844 48.777344 24.984375 47.785156 25.140625 46.675781 C 25.539062 45.898438 26.265625 45.515625 26.675781 44.742188 C 26.957031 44.207031 26.996094 43.542969 27.316406 42.972656 C 27.90625 41.921875 29.195312 40.949219 30.058594 39.914062 C 30.992188 38.800781 31.851562 37.730469 32.394531 36.453125 C 32.59375 36 33.117188 34.996094 33.042969 34.441406 C 32.933594 33.667969 31.472656 33.03125 31.589844 32.109375 C 31.664062 31.539062 32.476562 31.546875 32.71875 30.984375 C 32.84375 30.691406 32.957031 29.882812 32.960938 29.535156 C 32.972656 28.757812 32.5625 27.949219 32.71875 27.121094 C 32.851562 26.414062 33.90625 26.128906 33.363281 25.351562 C 32.828125 24.582031 31.863281 25.765625 31.269531 25.269531 C 30.722656 24.8125 31.378906 24.261719 31.429688 23.417969 C 31.449219 23.082031 31.234375 22.699219 31.269531 22.453125 C 31.316406 22.09375 32.019531 21.488281 31.832031 21.246094 C 31.539062 20.878906 31.222656 20.132812 30.765625 19.539062 C 39.757812 12.347656 50.535156 7.292969 62.316406 5.152344 Z M 62.316406 5.152344 "/>
</g>
</svg>
